<mxfile host="www.draw.io" modified="2023-05-11T21:38:55.351Z" agent="Mozilla/5.0 (Windows NT 10.0; Win64; x64) AppleWebKit/537.36 (KHTML, like Gecko) Chrome/112.0.0.0 Safari/537.36" etag="67iaoBSYkz3XqZqOAL1F" version="21.2.9" type="device">
  <diagram name="Страница 1" id="nvHRbx4KRjpOqdb_E22I">
    <mxGraphModel dx="819" dy="455" grid="0" gridSize="10" guides="1" tooltips="1" connect="1" arrows="1" fold="1" page="1" pageScale="1" pageWidth="827" pageHeight="1169" math="0" shadow="0">
      <root>
        <mxCell id="0" />
        <mxCell id="1" parent="0" />
        <mxCell id="gIhtm3OILwZ725tfP_vh-38" value="" style="rounded=0;whiteSpace=wrap;html=1;fillColor=none;" parent="1" vertex="1">
          <mxGeometry x="130" y="10" width="450" height="610" as="geometry" />
        </mxCell>
        <mxCell id="gIhtm3OILwZ725tfP_vh-20" style="rounded=0;orthogonalLoop=1;jettySize=auto;html=1;" parent="1" source="gIhtm3OILwZ725tfP_vh-1" target="gIhtm3OILwZ725tfP_vh-7" edge="1">
          <mxGeometry relative="1" as="geometry" />
        </mxCell>
        <mxCell id="gIhtm3OILwZ725tfP_vh-21" style="rounded=0;orthogonalLoop=1;jettySize=auto;html=1;" parent="1" source="gIhtm3OILwZ725tfP_vh-1" target="gIhtm3OILwZ725tfP_vh-8" edge="1">
          <mxGeometry relative="1" as="geometry" />
        </mxCell>
        <mxCell id="gIhtm3OILwZ725tfP_vh-23" style="rounded=0;orthogonalLoop=1;jettySize=auto;html=1;" parent="1" source="gIhtm3OILwZ725tfP_vh-1" target="gIhtm3OILwZ725tfP_vh-11" edge="1">
          <mxGeometry relative="1" as="geometry" />
        </mxCell>
        <mxCell id="gIhtm3OILwZ725tfP_vh-24" style="rounded=0;orthogonalLoop=1;jettySize=auto;html=1;" parent="1" source="gIhtm3OILwZ725tfP_vh-1" target="gIhtm3OILwZ725tfP_vh-10" edge="1">
          <mxGeometry relative="1" as="geometry" />
        </mxCell>
        <mxCell id="gIhtm3OILwZ725tfP_vh-1" value="&#xa;&lt;span style=&quot;font-size:14.0pt;line-height:150%;&#xa;font-family:&amp;quot;Times New Roman&amp;quot;,serif;mso-fareast-font-family:Calibri;mso-fareast-theme-font:&#xa;minor-latin;mso-bidi-theme-font:minor-bidi;mso-ansi-language:RU;mso-fareast-language:&#xa;EN-US;mso-bidi-language:AR-SA&quot;&gt;Гость&lt;/span&gt;&#xa;&#xa;&#xa;&#xa;" style="shape=umlActor;verticalLabelPosition=bottom;verticalAlign=top;html=1;outlineConnect=0;" parent="1" vertex="1">
          <mxGeometry x="80" y="90" width="30" height="60" as="geometry" />
        </mxCell>
        <mxCell id="gIhtm3OILwZ725tfP_vh-29" style="edgeStyle=orthogonalEdgeStyle;rounded=0;orthogonalLoop=1;jettySize=auto;html=1;" parent="1" source="gIhtm3OILwZ725tfP_vh-3" target="gIhtm3OILwZ725tfP_vh-4" edge="1">
          <mxGeometry relative="1" as="geometry" />
        </mxCell>
        <mxCell id="gIhtm3OILwZ725tfP_vh-30" style="rounded=0;orthogonalLoop=1;jettySize=auto;html=1;" parent="1" source="gIhtm3OILwZ725tfP_vh-3" target="gIhtm3OILwZ725tfP_vh-16" edge="1">
          <mxGeometry relative="1" as="geometry" />
        </mxCell>
        <mxCell id="gIhtm3OILwZ725tfP_vh-31" style="rounded=0;orthogonalLoop=1;jettySize=auto;html=1;" parent="1" source="gIhtm3OILwZ725tfP_vh-3" target="gIhtm3OILwZ725tfP_vh-15" edge="1">
          <mxGeometry relative="1" as="geometry" />
        </mxCell>
        <mxCell id="gIhtm3OILwZ725tfP_vh-32" style="rounded=0;orthogonalLoop=1;jettySize=auto;html=1;" parent="1" source="gIhtm3OILwZ725tfP_vh-3" target="gIhtm3OILwZ725tfP_vh-17" edge="1">
          <mxGeometry relative="1" as="geometry" />
        </mxCell>
        <mxCell id="437z70dMI0tEhV2rp78B-9" style="rounded=0;orthogonalLoop=1;jettySize=auto;html=1;entryX=-0.008;entryY=0.438;entryDx=0;entryDy=0;entryPerimeter=0;" parent="1" source="gIhtm3OILwZ725tfP_vh-3" target="437z70dMI0tEhV2rp78B-5" edge="1">
          <mxGeometry relative="1" as="geometry" />
        </mxCell>
        <mxCell id="437z70dMI0tEhV2rp78B-10" style="rounded=0;orthogonalLoop=1;jettySize=auto;html=1;" parent="1" source="gIhtm3OILwZ725tfP_vh-3" target="437z70dMI0tEhV2rp78B-6" edge="1">
          <mxGeometry relative="1" as="geometry" />
        </mxCell>
        <mxCell id="gIhtm3OILwZ725tfP_vh-3" value="&#xa;&lt;span style=&quot;font-size:14.0pt;line-height:150%;&#xa;font-family:&amp;quot;Times New Roman&amp;quot;,serif;mso-fareast-font-family:Calibri;mso-fareast-theme-font:&#xa;minor-latin;mso-bidi-theme-font:minor-bidi;mso-ansi-language:RU;mso-fareast-language:&#xa;EN-US;mso-bidi-language:AR-SA&quot;&gt;Менеджер&lt;/span&gt;&#xa;&#xa;&#xa;&#xa;" style="shape=umlActor;verticalLabelPosition=bottom;verticalAlign=top;html=1;outlineConnect=0;" parent="1" vertex="1">
          <mxGeometry x="80" y="370" width="30" height="60" as="geometry" />
        </mxCell>
        <mxCell id="gIhtm3OILwZ725tfP_vh-25" style="edgeStyle=orthogonalEdgeStyle;rounded=0;orthogonalLoop=1;jettySize=auto;html=1;" parent="1" source="gIhtm3OILwZ725tfP_vh-4" target="gIhtm3OILwZ725tfP_vh-1" edge="1">
          <mxGeometry relative="1" as="geometry" />
        </mxCell>
        <mxCell id="gIhtm3OILwZ725tfP_vh-27" style="rounded=0;orthogonalLoop=1;jettySize=auto;html=1;entryX=0.093;entryY=0.76;entryDx=0;entryDy=0;entryPerimeter=0;" parent="1" source="gIhtm3OILwZ725tfP_vh-4" target="gIhtm3OILwZ725tfP_vh-14" edge="1">
          <mxGeometry relative="1" as="geometry" />
        </mxCell>
        <mxCell id="437z70dMI0tEhV2rp78B-4" style="rounded=0;orthogonalLoop=1;jettySize=auto;html=1;" parent="1" source="gIhtm3OILwZ725tfP_vh-4" target="437z70dMI0tEhV2rp78B-2" edge="1">
          <mxGeometry relative="1" as="geometry" />
        </mxCell>
        <mxCell id="gIhtm3OILwZ725tfP_vh-4" value="&#xa;&lt;span style=&quot;font-size:14.0pt;line-height:150%;&#xa;font-family:&amp;quot;Times New Roman&amp;quot;,serif;mso-fareast-font-family:Calibri;mso-fareast-theme-font:&#xa;minor-latin;mso-bidi-theme-font:minor-bidi;mso-ansi-language:RU;mso-fareast-language:&#xa;EN-US;mso-bidi-language:AR-SA&quot;&gt;Пользователь &lt;/span&gt;&#xa;&#xa;&#xa;&#xa;" style="shape=umlActor;verticalLabelPosition=bottom;verticalAlign=top;html=1;outlineConnect=0;" parent="1" vertex="1">
          <mxGeometry x="80" y="220" width="30" height="60" as="geometry" />
        </mxCell>
        <mxCell id="gIhtm3OILwZ725tfP_vh-33" style="edgeStyle=orthogonalEdgeStyle;rounded=0;orthogonalLoop=1;jettySize=auto;html=1;" parent="1" source="gIhtm3OILwZ725tfP_vh-5" target="gIhtm3OILwZ725tfP_vh-3" edge="1">
          <mxGeometry relative="1" as="geometry" />
        </mxCell>
        <mxCell id="gIhtm3OILwZ725tfP_vh-34" style="rounded=0;orthogonalLoop=1;jettySize=auto;html=1;entryX=0;entryY=0.5;entryDx=0;entryDy=0;" parent="1" source="gIhtm3OILwZ725tfP_vh-5" target="gIhtm3OILwZ725tfP_vh-19" edge="1">
          <mxGeometry relative="1" as="geometry" />
        </mxCell>
        <mxCell id="gIhtm3OILwZ725tfP_vh-35" style="rounded=0;orthogonalLoop=1;jettySize=auto;html=1;" parent="1" source="gIhtm3OILwZ725tfP_vh-5" target="gIhtm3OILwZ725tfP_vh-18" edge="1">
          <mxGeometry relative="1" as="geometry" />
        </mxCell>
        <mxCell id="437z70dMI0tEhV2rp78B-11" style="rounded=0;orthogonalLoop=1;jettySize=auto;html=1;entryX=0.11;entryY=0.8;entryDx=0;entryDy=0;entryPerimeter=0;" parent="1" source="gIhtm3OILwZ725tfP_vh-5" target="437z70dMI0tEhV2rp78B-8" edge="1">
          <mxGeometry relative="1" as="geometry" />
        </mxCell>
        <mxCell id="gIhtm3OILwZ725tfP_vh-5" value="&#xa;&lt;span style=&quot;font-size:14.0pt;line-height:150%;&#xa;font-family:&amp;quot;Times New Roman&amp;quot;,serif;mso-fareast-font-family:Calibri;mso-fareast-theme-font:&#xa;minor-latin;mso-bidi-theme-font:minor-bidi;mso-ansi-language:RU;mso-fareast-language:&#xa;EN-US;mso-bidi-language:AR-SA&quot;&gt;Администратор&lt;/span&gt;&#xa;&#xa;&#xa;&#xa;" style="shape=umlActor;verticalLabelPosition=bottom;verticalAlign=top;html=1;outlineConnect=0;" parent="1" vertex="1">
          <mxGeometry x="80" y="510" width="30" height="60" as="geometry" />
        </mxCell>
        <mxCell id="gIhtm3OILwZ725tfP_vh-7" value="&lt;span&gt;Просмотр главной страницы сайта&lt;/span&gt;" style="ellipse;whiteSpace=wrap;html=1;" parent="1" vertex="1">
          <mxGeometry x="132" y="17" width="140" height="50" as="geometry" />
        </mxCell>
        <mxCell id="gIhtm3OILwZ725tfP_vh-8" value="• Просмотр информации о сайте" style="ellipse;whiteSpace=wrap;html=1;" parent="1" vertex="1">
          <mxGeometry x="285" y="20" width="140" height="50" as="geometry" />
        </mxCell>
        <mxCell id="gIhtm3OILwZ725tfP_vh-10" value="Регистрация в системе" style="ellipse;whiteSpace=wrap;html=1;" parent="1" vertex="1">
          <mxGeometry x="440" y="80" width="140" height="50" as="geometry" />
        </mxCell>
        <mxCell id="gIhtm3OILwZ725tfP_vh-11" value="Вход в систему" style="ellipse;whiteSpace=wrap;html=1;" parent="1" vertex="1">
          <mxGeometry x="440" y="20" width="140" height="50" as="geometry" />
        </mxCell>
        <mxCell id="gIhtm3OILwZ725tfP_vh-14" value="Просмотр списка своих операций" style="ellipse;whiteSpace=wrap;html=1;" parent="1" vertex="1">
          <mxGeometry x="141" y="130" width="140" height="50" as="geometry" />
        </mxCell>
        <mxCell id="gIhtm3OILwZ725tfP_vh-15" value="Редактирование и удаление операций других пользователей" style="ellipse;whiteSpace=wrap;html=1;" parent="1" vertex="1">
          <mxGeometry x="279.5" y="180" width="140" height="50" as="geometry" />
        </mxCell>
        <mxCell id="gIhtm3OILwZ725tfP_vh-16" value="Просмотр списка всех операций в организации" style="ellipse;whiteSpace=wrap;html=1;" parent="1" vertex="1">
          <mxGeometry x="132" y="232" width="140" height="50" as="geometry" />
        </mxCell>
        <mxCell id="gIhtm3OILwZ725tfP_vh-17" value="Просмотр сводной статистики по операциям организации" style="ellipse;whiteSpace=wrap;html=1;" parent="1" vertex="1">
          <mxGeometry x="275" y="248" width="170" height="60" as="geometry" />
        </mxCell>
        <mxCell id="gIhtm3OILwZ725tfP_vh-18" value="Управление учетными записями пользователей" style="ellipse;whiteSpace=wrap;html=1;" parent="1" vertex="1">
          <mxGeometry x="160" y="560" width="160" height="50" as="geometry" />
        </mxCell>
        <mxCell id="gIhtm3OILwZ725tfP_vh-19" value="Назначение и изменение ролей пользователей" style="ellipse;whiteSpace=wrap;html=1;" parent="1" vertex="1">
          <mxGeometry x="175" y="489" width="140" height="50" as="geometry" />
        </mxCell>
        <mxCell id="437z70dMI0tEhV2rp78B-2" value="Редактирование профиля" style="ellipse;whiteSpace=wrap;html=1;" parent="1" vertex="1">
          <mxGeometry x="300" y="124" width="140" height="50" as="geometry" />
        </mxCell>
        <mxCell id="437z70dMI0tEhV2rp78B-5" value="Создание и редактирование категорий доходов и расходов" style="ellipse;whiteSpace=wrap;html=1;" parent="1" vertex="1">
          <mxGeometry x="430" y="280" width="150" height="60" as="geometry" />
        </mxCell>
        <mxCell id="437z70dMI0tEhV2rp78B-6" value="Создание и редактирование проектов" style="ellipse;whiteSpace=wrap;html=1;" parent="1" vertex="1">
          <mxGeometry x="290" y="346" width="140" height="50" as="geometry" />
        </mxCell>
        <mxCell id="437z70dMI0tEhV2rp78B-8" value="Управление бюджетом на уровне организаций" style="ellipse;whiteSpace=wrap;html=1;" parent="1" vertex="1">
          <mxGeometry x="168" y="408" width="122" height="60" as="geometry" />
        </mxCell>
      </root>
    </mxGraphModel>
  </diagram>
</mxfile>
